<svg xmlns="http://www.w3.org/2000/svg" xmlns:xlink="http://www.w3.org/1999/xlink" xmlns:s="https://github.com/nturley/netlistsvg" width="538" height="184"><style>svg {
  stroke:#000;
  fill:none;
}
text {
  fill:#000;
  stroke:none;
  font-size:10px;
  font-weight: bold;
  font-family: "Courier New", monospace;
}
line {
    stroke-linecap: round;
}
.nodelabel {
  text-anchor: middle;
}
.inputPortLabel {
  text-anchor: end;
}
.splitjoinBody {
  fill:#000;
}</style><g s:type="generic" transform="translate(191,49)" s:width="30" s:height="40" id="cell_$abc$151$auto$blifparse.cc:386:parse_blif$152"><text x="15" y="-4" class="nodelabel cell_$abc$151$auto$blifparse.cc:386:parse_blif$152" s:attribute="ref">sky130_fd_sc_hd__mux4_2</text><rect width="30" height="120" s:generic="body" class="cell_$abc$151$auto$blifparse.cc:386:parse_blif$152"/><g transform="translate(0,10)" s:x="0" s:y="10" s:pid="in0" id="port_$abc$151$auto$blifparse.cc:386:parse_blif$152~A0"><text x="-3" y="-4" class="inputPortLabel cell_$abc$151$auto$blifparse.cc:386:parse_blif$152">A0</text></g><g transform="translate(0,30)" s:x="0" s:y="10" s:pid="in0" id="port_$abc$151$auto$blifparse.cc:386:parse_blif$152~A1"><text x="-3" y="-4" class="inputPortLabel cell_$abc$151$auto$blifparse.cc:386:parse_blif$152">A1</text></g><g transform="translate(0,50)" s:x="0" s:y="10" s:pid="in0" id="port_$abc$151$auto$blifparse.cc:386:parse_blif$152~A2"><text x="-3" y="-4" class="inputPortLabel cell_$abc$151$auto$blifparse.cc:386:parse_blif$152">A2</text></g><g transform="translate(0,70)" s:x="0" s:y="10" s:pid="in0" id="port_$abc$151$auto$blifparse.cc:386:parse_blif$152~A3"><text x="-3" y="-4" class="inputPortLabel cell_$abc$151$auto$blifparse.cc:386:parse_blif$152">A3</text></g><g transform="translate(0,90)" s:x="0" s:y="10" s:pid="in0" id="port_$abc$151$auto$blifparse.cc:386:parse_blif$152~S0"><text x="-3" y="-4" class="inputPortLabel cell_$abc$151$auto$blifparse.cc:386:parse_blif$152">S0</text></g><g transform="translate(0,110)" s:x="0" s:y="10" s:pid="in0" id="port_$abc$151$auto$blifparse.cc:386:parse_blif$152~S1"><text x="-3" y="-4" class="inputPortLabel cell_$abc$151$auto$blifparse.cc:386:parse_blif$152">S1</text></g><g transform="translate(30,10)" s:x="30" s:y="10" s:pid="out0" id="port_$abc$151$auto$blifparse.cc:386:parse_blif$152~X"><text x="5" y="-4" style="fill:#000; stroke:none" class="cell_$abc$151$auto$blifparse.cc:386:parse_blif$152">X</text></g></g><g s:type="inputExt" transform="translate(12,22.5)" s:width="30" s:height="20" id="cell_i"><text x="15" y="-4" class="nodelabel cell_i" s:attribute="ref">i</text><s:alias val="$_inputExt_"/><path d="M0,0 L0,20 L15,20 L30,10 L15,0 Z" class="cell_i"/><g s:x="30" s:y="10" s:pid="Y"/></g><g s:type="inputExt" transform="translate(12,139.5)" s:width="30" s:height="20" id="cell_s"><text x="15" y="-4" class="nodelabel cell_s" s:attribute="ref">s</text><s:alias val="$_inputExt_"/><path d="M0,0 L0,20 L15,20 L30,10 L15,0 Z" class="cell_s"/><g s:x="30" s:y="10" s:pid="Y"/></g><g s:type="outputExt" transform="translate(496,49.5)" s:width="30" s:height="20" id="cell_y"><text x="15" y="-4" class="nodelabel cell_y" s:attribute="ref">y</text><s:alias val="$_outputExt_"/><path d="M30,0 L30,20 L15,20 L0,10 L15,0 Z" class="cell_y"/><g s:x="0" s:y="10" s:pid="A"/></g><g s:type="split" transform="translate(116,12)" s:width="5" s:height="40" id="cell_$split$,2,3,4,5,"><rect width="5" height="80" class="splitjoinBody" s:generic="body"/><s:alias val="$_split_"/><g s:x="0" s:y="20" s:pid="in"/><g transform="translate(4,10)" s:x="4" s:y="10" s:pid="out0"><text x="5" y="-4">0</text></g><g transform="translate(4,30)" s:x="4" s:y="10" s:pid="out0"><text x="5" y="-4">1</text></g><g transform="translate(4,50)" s:x="4" s:y="10" s:pid="out0"><text x="5" y="-4">2</text></g><g transform="translate(4,70)" s:x="4" s:y="10" s:pid="out0"><text x="5" y="-4">3</text></g></g><g s:type="split" transform="translate(116,129)" s:width="5" s:height="40" id="cell_$split$,6,7,"><rect width="5" height="40" class="splitjoinBody" s:generic="body"/><s:alias val="$_split_"/><g s:x="0" s:y="20" s:pid="in"/><g transform="translate(4,10)" s:x="4" s:y="10" s:pid="out0"><text x="5" y="-4">0</text></g><g transform="translate(4,30)" s:x="4" s:y="10" s:pid="out0"><text x="5" y="-4">1</text></g></g><line x1="121" x2="168" y1="22.5" y2="22.5" class="net_2 width_1" style="stroke-width: 1"/><line x1="168" x2="168" y1="22.5" y2="59.5" class="net_2 width_1" style="stroke-width: 1"/><line x1="168" x2="191" y1="59.5" y2="59.5" class="net_2 width_1" style="stroke-width: 1"/><line x1="121" x2="158" y1="42.5" y2="42.5" class="net_3 width_1" style="stroke-width: 1"/><line x1="158" x2="158" y1="42.5" y2="79.5" class="net_3 width_1" style="stroke-width: 1"/><line x1="158" x2="191" y1="79.5" y2="79.5" class="net_3 width_1" style="stroke-width: 1"/><line x1="121" x2="148" y1="62.5" y2="62.5" class="net_4 width_1" style="stroke-width: 1"/><line x1="148" x2="148" y1="62.5" y2="99.5" class="net_4 width_1" style="stroke-width: 1"/><line x1="148" x2="191" y1="99.5" y2="99.5" class="net_4 width_1" style="stroke-width: 1"/><line x1="121" x2="138" y1="82.5" y2="82.5" class="net_5 width_1" style="stroke-width: 1"/><line x1="138" x2="138" y1="82.5" y2="119.5" class="net_5 width_1" style="stroke-width: 1"/><line x1="138" x2="191" y1="119.5" y2="119.5" class="net_5 width_1" style="stroke-width: 1"/><line x1="121" x2="191" y1="139.5" y2="139.5" class="net_6 width_1" style="stroke-width: 1"/><line x1="121" x2="191" y1="159.5" y2="159.5" class="net_7 width_1" style="stroke-width: 1"/><line x1="222" x2="496" y1="59.5" y2="59.5" class="net_8 width_1" style="stroke-width: 1"/><line x1="42" x2="116" y1="32.5" y2="32.5" class="net_2,3,4,5 width_4" style="stroke-width: 2"/><line x1="42" x2="116" y1="149.5" y2="149.5" class="net_6,7 width_2" style="stroke-width: 2"/><rect x="78" y="27.5" width="16" height="9" class="net_2,3,4,5 width_4 busLabel_4" style="fill: white; stroke: none"/><text x="77" y="35.5" class="net_2,3,4,5 width_4 busLabel_4">/4/</text><rect x="78" y="144.5" width="16" height="9" class="net_6,7 width_2 busLabel_2" style="fill: white; stroke: none"/><text x="77" y="152.5" class="net_6,7 width_2 busLabel_2">/2/</text></svg>